<svg xmlns="http://www.w3.org/2000/svg" viewBox="0 0 622 426.66"><defs><style>.cls-1{fill:#5b117a;}.cls-2{fill:#72014a;}.cls-3{fill:#006837;}.cls-4{fill:#47117c;}.cls-5{fill:#9d005d;}.cls-6{fill:#009b41;}.cls-7{fill:#263681;}.cls-8{fill:#459bff;}.cls-9{fill:#39b44a;}.cls-10{fill:#171a2d;}.cls-11{fill:#f9de3d;}.cls-12{fill:#d6140b;}.cls-13{fill:#f7931e;}.cls-14{fill:#ba1717;}.cls-15{fill:#f4a321;}.cls-16{fill:#f97c00;}.cls-17{fill:#f05a24;}.cls-18{fill:#8b0815;}.cls-19{fill:#f4d708;}</style></defs><title>logo_convencion_main</title><g id="Capa_2" data-name="Capa 2"><g id="Layer_1" data-name="Layer 1"><path class="cls-1" d="M45.52,166.58a10.67,10.67,0,0,1-8.92-16.5,332.43,332.43,0,0,1,28.52-37.65,10.66,10.66,0,1,1,16,14.09,310,310,0,0,0-26.68,35.22A10.62,10.62,0,0,1,45.52,166.58Z"/><path class="cls-2" d="M120.84,85a10.68,10.68,0,0,1-6.36-19.24,329.75,329.75,0,0,1,39.77-25.42,10.67,10.67,0,0,1,10.14,18.78,309,309,0,0,0-37.2,23.77A10.62,10.62,0,0,1,120.84,85Z"/><path class="cls-3" d="M226.09,32.72a10.67,10.67,0,0,1-2.78-21,330.86,330.86,0,0,1,46.3-9.07,10.67,10.67,0,0,1,2.58,21.19,309.21,309.21,0,0,0-43.31,8.48A10.76,10.76,0,0,1,226.09,32.72Z"/><path class="cls-4" d="M10.66,238.77a10.88,10.88,0,0,1-3.39-.55A10.68,10.68,0,0,1,.56,224.7c2-6,4.23-12,6.59-17.95a10.66,10.66,0,1,1,19.78,7.95c-2.22,5.52-4.29,11.17-6.17,16.79A10.66,10.66,0,0,1,10.66,238.77Z"/><path class="cls-5" d="M122.94,161.56a10.68,10.68,0,0,1-7.75-18,273.45,273.45,0,0,1,37.72-33.27,10.67,10.67,0,0,1,12.54,17.26,251.85,251.85,0,0,0-34.76,30.66A10.59,10.59,0,0,1,122.94,161.56Z"/><path class="cls-6" d="M221.81,95.53a10.68,10.68,0,0,1-3.64-20.72,272.05,272.05,0,0,1,48.63-12.7,10.68,10.68,0,0,1,3.45,21.07,250.48,250.48,0,0,0-44.82,11.7A10.45,10.45,0,0,1,221.81,95.53Z"/><path class="cls-7" d="M72.6,238.77a10.67,10.67,0,0,1-9.81-14.83,271,271,0,0,1,14-28.4A10.66,10.66,0,1,1,95.32,206.1a249.68,249.68,0,0,0-12.9,26.15A10.65,10.65,0,0,1,72.6,238.77Z"/><path class="cls-8" d="M137.18,238.77a10.55,10.55,0,0,1-5.33-1.44A10.68,10.68,0,0,1,128,222.75a212.65,212.65,0,0,1,33.15-43.38,10.66,10.66,0,1,1,15.12,15,191.68,191.68,0,0,0-29.83,39A10.63,10.63,0,0,1,137.18,238.77Z"/><path class="cls-9" d="M228.22,155a10.68,10.68,0,0,1-4.31-20.44,212.71,212.71,0,0,1,52.3-15.49,10.67,10.67,0,0,1,3.37,21.08,190.92,190.92,0,0,0-47.06,13.93A10.6,10.6,0,0,1,228.22,155Z"/><ellipse class="cls-10" cx="311" cy="128.77" rx="10.65" ry="10.67"/><ellipse class="cls-10" cx="195.98" cy="165.9" rx="10.65" ry="10.67"/><path class="cls-11" d="M484.81,238.77a10.66,10.66,0,0,1-9.24-5.33,191.28,191.28,0,0,0-29.82-39,10.66,10.66,0,1,1,15.12-15A212.65,212.65,0,0,1,494,222.75a10.67,10.67,0,0,1-3.89,14.58A10.51,10.51,0,0,1,484.81,238.77Z"/><path class="cls-12" d="M393.77,155a10.65,10.65,0,0,1-4.31-.92,190.66,190.66,0,0,0-47.06-13.93,10.67,10.67,0,0,1,3.37-21.08,212.66,212.66,0,0,1,52.31,15.49A10.68,10.68,0,0,1,393.77,155Z"/><ellipse class="cls-10" cx="426.01" cy="165.9" rx="10.65" ry="10.67"/><ellipse class="cls-10" cx="102.73" cy="174.63" rx="10.65" ry="10.67"/><ellipse class="cls-10" cx="189.35" cy="98.9" rx="10.65" ry="10.67"/><ellipse class="cls-10" cx="310.99" cy="68.29" rx="10.65" ry="10.67"/><path class="cls-13" d="M499,161.56a10.6,10.6,0,0,1-7.75-3.35,251.11,251.11,0,0,0-34.75-30.66,10.67,10.67,0,0,1,12.54-17.26,272.13,272.13,0,0,1,37.71,33.27,10.69,10.69,0,0,1-.44,15.09A10.56,10.56,0,0,1,499,161.56Z"/><path class="cls-14" d="M400.18,95.53a10.55,10.55,0,0,1-3.63-.65,250.16,250.16,0,0,0-44.81-11.7,10.68,10.68,0,0,1,3.45-21.07,271.73,271.73,0,0,1,48.62,12.7,10.68,10.68,0,0,1-3.63,20.72Z"/><path class="cls-15" d="M549.38,238.77a10.63,10.63,0,0,1-9.81-6.52,250.68,250.68,0,0,0-12.9-26.15,10.66,10.66,0,1,1,18.52-10.56,271.94,271.94,0,0,1,14,28.4,10.66,10.66,0,0,1-9.81,14.83Z"/><ellipse class="cls-10" cx="519.26" cy="174.63" rx="10.65" ry="10.67"/><ellipse class="cls-10" cx="432.63" cy="98.9" rx="10.65" ry="10.67"/><ellipse class="cls-10" cx="28.01" cy="184.69" rx="10.65" ry="10.67"/><ellipse class="cls-10" cx="94.61" cy="96.63" rx="10.65" ry="10.67"/><ellipse class="cls-10" cx="192.21" cy="33.72" rx="10.65" ry="10.67"/><ellipse class="cls-10" cx="310.99" cy="10.68" rx="10.65" ry="10.67"/><path class="cls-16" d="M576.47,166.58a10.65,10.65,0,0,1-8.94-4.84,309.91,309.91,0,0,0-26.67-35.22,10.66,10.66,0,1,1,16-14.09,332.71,332.71,0,0,1,28.52,37.65,10.67,10.67,0,0,1-8.92,16.5Z"/><path class="cls-17" d="M501.14,85a10.62,10.62,0,0,1-6.35-2.11,308.17,308.17,0,0,0-37.2-23.77,10.67,10.67,0,0,1,10.15-18.78,329.75,329.75,0,0,1,39.77,25.42A10.68,10.68,0,0,1,501.14,85Z"/><path class="cls-18" d="M395.9,32.72a10.76,10.76,0,0,1-2.79-.37,309.21,309.21,0,0,0-43.31-8.48,10.67,10.67,0,0,1,2.58-21.19,331.14,331.14,0,0,1,46.3,9.07,10.67,10.67,0,0,1-2.78,21Z"/><path class="cls-19" d="M611.33,238.77a10.66,10.66,0,0,1-10.1-7.28c-1.88-5.63-4-11.27-6.17-16.79a10.65,10.65,0,1,1,19.77-7.95c2.37,5.89,4.59,11.93,6.6,17.95a10.68,10.68,0,0,1-6.71,13.52A10.83,10.83,0,0,1,611.33,238.77Z"/><ellipse class="cls-10" cx="593.97" cy="184.69" rx="10.65" ry="10.67"/><ellipse class="cls-10" cx="527.38" cy="96.63" rx="10.65" ry="10.67"/><ellipse class="cls-10" cx="429.77" cy="33.72" rx="10.65" ry="10.67"/><path d="M54.51,292.53a2.9,2.9,0,0,1,1.37,2,3.1,3.1,0,0,1-.68,2.39,2.18,2.18,0,0,1-1.71,1,4.59,4.59,0,0,1-2.1-.44,30.51,30.51,0,0,0-7.92-3.81,29.79,29.79,0,0,0-9.08-1.37,28.44,28.44,0,0,0-11.09,2.15,26.72,26.72,0,0,0-8.94,6.06,27.39,27.39,0,0,0-5.91,9.28A34.61,34.61,0,0,0,8.5,333.7a27.3,27.3,0,0,0,6,9.33,26.16,26.16,0,0,0,8.94,6A28.86,28.86,0,0,0,34.39,351a29.32,29.32,0,0,0,9-1.36,34.93,34.93,0,0,0,8-3.72,3.06,3.06,0,0,1,2-.44,2.86,2.86,0,0,1,1.85,1.13,3.06,3.06,0,0,1,.59,2.34,2.4,2.4,0,0,1-1.27,1.86,40.41,40.41,0,0,1-5.76,3,38.76,38.76,0,0,1-7,2.2,36,36,0,0,1-7.42.78,34.65,34.65,0,0,1-13.24-2.54A33.52,33.52,0,0,1,2.74,336,36.33,36.33,0,0,1,0,321.64a35,35,0,0,1,10.06-25.06A33.65,33.65,0,0,1,21,289.2a34.24,34.24,0,0,1,13.39-2.63,37,37,0,0,1,10.74,1.56A34.41,34.41,0,0,1,54.51,292.53Z"/><path d="M129.35,321.64a39.87,39.87,0,0,1-2.4,14.11,33.43,33.43,0,0,1-6.79,11.14,30.56,30.56,0,0,1-10.4,7.33,34.75,34.75,0,0,1-26.33,0,30.7,30.7,0,0,1-10.36-7.33,33.85,33.85,0,0,1-6.83-11.14,41.88,41.88,0,0,1,0-28.23,34,34,0,0,1,6.83-11.14,30.67,30.67,0,0,1,10.36-7.32,34.75,34.75,0,0,1,26.33,0,30.53,30.53,0,0,1,10.4,7.32A33.53,33.53,0,0,1,127,307.52,39.93,39.93,0,0,1,129.35,321.64Zm-6.26,0a32.73,32.73,0,0,0-3.42-15.29A26,26,0,0,0,110.34,296a25.28,25.28,0,0,0-13.72-3.71,25.1,25.1,0,0,0-23.11,14,36.37,36.37,0,0,0,0,30.58,25.11,25.11,0,0,0,23.11,14,25.19,25.19,0,0,0,13.72-3.71,26,26,0,0,0,9.33-10.3A32.78,32.78,0,0,0,123.09,321.64Z"/><path d="M193.23,287.45a2.59,2.59,0,0,1,2,.78,2.74,2.74,0,0,1,.74,1.95V352.7A2.92,2.92,0,0,1,195,355a3.09,3.09,0,0,1-2.1.83,3.68,3.68,0,0,1-1.32-.24,2.35,2.35,0,0,1-1-.74L147,296.24l1.66-1v57.93a2.54,2.54,0,0,1-.78,1.86,2.65,2.65,0,0,1-2,.78,2.6,2.6,0,0,1-2.74-2.64V290.38a2.77,2.77,0,0,1,2.84-2.93,3.88,3.88,0,0,1,1.27.24,2.11,2.11,0,0,1,1.07.83l43.08,58-1,1.76V290.18a2.67,2.67,0,0,1,2.73-2.73Z"/><path d="M263.76,287.35a3.07,3.07,0,0,1,2.2.78,2.65,2.65,0,0,1,.83,2.05,3.87,3.87,0,0,1-.29,1.37l-26.08,62.33a3.53,3.53,0,0,1-1.27,1.46,2.94,2.94,0,0,1-1.57.49,3.06,3.06,0,0,1-1.66-.49,2.44,2.44,0,0,1-1.07-1.37l-26-62.23a2,2,0,0,1-.29-.68,3,3,0,0,1-.1-.78,2.61,2.61,0,0,1,1-2.15,3.12,3.12,0,0,1,2-.78,3,3,0,0,1,2.93,2.15l24.42,58.42H237l24-58.62A3,3,0,0,1,263.76,287.35Z"/><path d="M282.23,287.45H318a3,3,0,0,1,2.15.83,2.74,2.74,0,0,1,.88,2.1,2.61,2.61,0,0,1-.88,2.05,3.11,3.11,0,0,1-2.15.78H284.47l1-1.66V319l-1.07-1.27h29.21a2.93,2.93,0,0,1,2.15.88,2.82,2.82,0,0,1,.87,2.05,2.62,2.62,0,0,1-.87,2,3.14,3.14,0,0,1-2.15.78h-29l.88-1v28.13l-.49-.58h33a2.93,2.93,0,0,1,2.15.87A2.82,2.82,0,0,1,321,353a2.61,2.61,0,0,1-.88,2.05,3.11,3.11,0,0,1-2.15.78H282.23a2.74,2.74,0,0,1-2.1-.88,2.87,2.87,0,0,1-.83-2.05V290.38a2.84,2.84,0,0,1,.83-2.05A2.74,2.74,0,0,1,282.23,287.45Z"/><path d="M384.8,287.45a2.59,2.59,0,0,1,2,.78,2.74,2.74,0,0,1,.74,1.95V352.7a2.92,2.92,0,0,1-.93,2.3,3.09,3.09,0,0,1-2.1.83,3.68,3.68,0,0,1-1.32-.24,2.35,2.35,0,0,1-1-.74l-43.58-58.61,1.66-1v57.93a2.54,2.54,0,0,1-.78,1.86,2.65,2.65,0,0,1-2,.78,2.6,2.6,0,0,1-2.74-2.64V290.38a2.77,2.77,0,0,1,2.84-2.93,3.88,3.88,0,0,1,1.27.24,2.11,2.11,0,0,1,1.07.83l43.08,58-1,1.76V290.18a2.67,2.67,0,0,1,2.73-2.73Z"/><path d="M455.82,292.53a2.9,2.9,0,0,1,1.37,2,3.1,3.1,0,0,1-.68,2.39,2.18,2.18,0,0,1-1.71,1,4.59,4.59,0,0,1-2.1-.44,30.51,30.51,0,0,0-7.92-3.81,29.79,29.79,0,0,0-9.08-1.37,28.44,28.44,0,0,0-11.09,2.15,26.72,26.72,0,0,0-8.94,6.06,27.39,27.39,0,0,0-5.91,9.28,34.61,34.61,0,0,0,.05,23.88,27.3,27.3,0,0,0,6,9.33,26.16,26.16,0,0,0,8.94,6A28.86,28.86,0,0,0,435.7,351a29.32,29.32,0,0,0,9-1.36,34.93,34.93,0,0,0,8-3.72,3.06,3.06,0,0,1,2.05-.44,2.86,2.86,0,0,1,1.85,1.13,3.06,3.06,0,0,1,.59,2.34,2.4,2.4,0,0,1-1.27,1.86,40.41,40.41,0,0,1-5.76,3,38.76,38.76,0,0,1-7,2.2,36,36,0,0,1-7.42.78,34.65,34.65,0,0,1-13.24-2.54A33.52,33.52,0,0,1,404.05,336a36.33,36.33,0,0,1-2.74-14.36,35,35,0,0,1,10.06-25.06,33.65,33.65,0,0,1,10.94-7.38,34.24,34.24,0,0,1,13.39-2.63,37,37,0,0,1,10.74,1.56A34.41,34.41,0,0,1,455.82,292.53Z"/><path d="M475.85,352.8a3.23,3.23,0,0,1-1,2.15,3,3,0,0,1-2.1.88,2.82,2.82,0,0,1-2.24-.88,3.08,3.08,0,0,1-.78-2.15V290.47a2.92,2.92,0,0,1,.87-2.14,3,3,0,0,1,2.25-.88,3,3,0,0,1,2.1.88,2.83,2.83,0,0,1,.93,2.14Z"/><path d="M555.08,321.64a39.87,39.87,0,0,1-2.4,14.11,33.43,33.43,0,0,1-6.79,11.14,30.56,30.56,0,0,1-10.4,7.33,34.75,34.75,0,0,1-26.33,0,30.66,30.66,0,0,1-10.35-7.33A34,34,0,0,1,492,335.75a42,42,0,0,1,0-28.23,34.15,34.15,0,0,1,6.84-11.14,30.63,30.63,0,0,1,10.35-7.32,34.75,34.75,0,0,1,26.33,0,30.53,30.53,0,0,1,10.4,7.32,33.53,33.53,0,0,1,6.79,11.14A39.93,39.93,0,0,1,555.08,321.64Zm-6.26,0a32.85,32.85,0,0,0-3.41-15.29A26.2,26.2,0,0,0,536.08,296a25.34,25.34,0,0,0-13.73-3.71,25.07,25.07,0,0,0-23.1,14,36.37,36.37,0,0,0,0,30.58,26.42,26.42,0,0,0,36.83,10.3,26.17,26.17,0,0,0,9.33-10.3A32.9,32.9,0,0,0,548.82,321.64ZM522.64,283a1.77,1.77,0,0,1-1.42-.53,1.89,1.89,0,0,1-.19-2.15,2.8,2.8,0,0,1,.73-.83l8.7-6.75a13.7,13.7,0,0,1,1.27-.73,3.51,3.51,0,0,1,1.56-.34,2.84,2.84,0,0,1,2.93,2.93,3.22,3.22,0,0,1-.49,1.76,3.71,3.71,0,0,1-1.36,1.27l-9.58,4.79-1,.39A3.21,3.21,0,0,1,522.64,283Z"/><path d="M619,287.45a2.63,2.63,0,0,1,2,.78,2.77,2.77,0,0,1,.73,1.95V352.7a2.92,2.92,0,0,1-.93,2.3,3.09,3.09,0,0,1-2.1.83,3.68,3.68,0,0,1-1.32-.24,2.41,2.41,0,0,1-1-.74l-43.58-58.61,1.67-1v57.93a2.58,2.58,0,0,1-.78,1.86,2.68,2.68,0,0,1-2,.78,2.59,2.59,0,0,1-2.73-2.64V290.38a2.76,2.76,0,0,1,2.83-2.93,3.88,3.88,0,0,1,1.27.24,2.11,2.11,0,0,1,1.07.83l43.09,58-1,1.76V290.18a2.67,2.67,0,0,1,2.73-2.73Z"/><path d="M39.83,376.61a3.93,3.93,0,0,1,2.24,3A4.58,4.58,0,0,1,41,383.42a3.31,3.31,0,0,1-2.45,1.48,5.66,5.66,0,0,1-3-.59,19.3,19.3,0,0,0-3.71-1.26,17.92,17.92,0,0,0-4.06-.44,18.77,18.77,0,0,0-7.08,1.26,14.69,14.69,0,0,0-5.31,3.59A15.5,15.5,0,0,0,12,393a20.79,20.79,0,0,0-1.13,7,21.75,21.75,0,0,0,1.28,7.85,15.32,15.32,0,0,0,3.55,5.55,14.22,14.22,0,0,0,5.36,3.29,20,20,0,0,0,6.67,1.08,21.12,21.12,0,0,0,4-.37,13.78,13.78,0,0,0,3.82-1.33,5.09,5.09,0,0,1,3-.52,3.85,3.85,0,0,1,2.53,1.55,4.53,4.53,0,0,1,1.06,3.82,3.91,3.91,0,0,1-2.24,2.85A25.54,25.54,0,0,1,36,425.37a29,29,0,0,1-4.07,1,26.17,26.17,0,0,1-4.17.33,29.2,29.2,0,0,1-10-1.7,25.27,25.27,0,0,1-8.43-5,23.25,23.25,0,0,1-5.83-8.32A29.59,29.59,0,0,1,1.35,400a27.78,27.78,0,0,1,1.94-10.52,24.41,24.41,0,0,1,5.5-8.33,25.37,25.37,0,0,1,8.39-5.48,28,28,0,0,1,10.56-2,27,27,0,0,1,6.3.74A25.73,25.73,0,0,1,39.83,376.61Z"/><path d="M97.08,400a28.87,28.87,0,0,1-1.83,10.36,26.44,26.44,0,0,1-5.17,8.48,23.72,23.72,0,0,1-7.92,5.74,24.15,24.15,0,0,1-27.85-5.74,26.26,26.26,0,0,1-5.17-8.48,30.27,30.27,0,0,1,0-20.73,26.37,26.37,0,0,1,5.17-8.48,24,24,0,0,1,7.88-5.73,24.29,24.29,0,0,1,27.89,5.73,26.55,26.55,0,0,1,5.17,8.48A29,29,0,0,1,97.08,400Zm-9.53,0a20.15,20.15,0,0,0-2-9,16.35,16.35,0,0,0-5.42-6.4,14.65,14.65,0,0,0-16,0A16,16,0,0,0,58.78,391a21.89,21.89,0,0,0,0,18,15.93,15.93,0,0,0,5.39,6.41,14.65,14.65,0,0,0,16,0A16.31,16.31,0,0,0,85.57,409,20.11,20.11,0,0,0,87.55,400Z"/><path d="M144.43,374.09a3.71,3.71,0,0,1,2.86,1.19,4.2,4.2,0,0,1,1.1,3v43.17a4.43,4.43,0,0,1-1.28,3.22,4.33,4.33,0,0,1-3.19,1.29,6.08,6.08,0,0,1-1.94-.33,3.36,3.36,0,0,1-1.51-.93l-28.8-36.94,1.9-1.19v35.25a4.14,4.14,0,0,1-1.13,3,3.93,3.93,0,0,1-3,1.18,3.7,3.7,0,0,1-2.86-1.18,4.2,4.2,0,0,1-1.1-3V378.61a4.41,4.41,0,0,1,1.28-3.22,4.34,4.34,0,0,1,3.19-1.3,6.17,6.17,0,0,1,2.13.41,3.09,3.09,0,0,1,1.61,1.22l27.93,36-1.25.88V378.24a4.2,4.2,0,0,1,1.1-3A3.81,3.81,0,0,1,144.43,374.09Z"/><path d="M175.88,426.66a30.68,30.68,0,0,1-9.23-1.29,22,22,0,0,1-7.85-4.56,5.87,5.87,0,0,1-1.47-1.85,4.65,4.65,0,0,1-.51-2.07,4.25,4.25,0,0,1,1.21-3,4,4,0,0,1,3-1.3,3.86,3.86,0,0,1,2.49.89A23.11,23.11,0,0,0,169.1,417a17.12,17.12,0,0,0,6.78,1.19,14.09,14.09,0,0,0,5-.85,9.85,9.85,0,0,0,3.66-2.3,4.6,4.6,0,0,0,1.39-3.29,5.66,5.66,0,0,0-1.32-3.78,10,10,0,0,0-4-2.63,30.8,30.8,0,0,0-6.89-1.66,30.38,30.38,0,0,1-7-1.82,15.92,15.92,0,0,1-5-3.11,12.19,12.19,0,0,1-3-4.44,15.17,15.17,0,0,1-1-5.74,13.72,13.72,0,0,1,2.45-8.22,15.38,15.38,0,0,1,6.64-5.18,23.23,23.23,0,0,1,9.23-1.78,26.11,26.11,0,0,1,8.84,1.45,20.47,20.47,0,0,1,6.63,3.66,5,5,0,0,1,2.13,3.92,4.26,4.26,0,0,1-1.25,3,3.88,3.88,0,0,1-2.93,1.33,3.16,3.16,0,0,1-2-.67,13.28,13.28,0,0,0-3.15-2,28.81,28.81,0,0,0-4.18-1.55,15,15,0,0,0-4.11-.63,15.21,15.21,0,0,0-5.31.81,7.28,7.28,0,0,0-3.26,2.22,5.18,5.18,0,0,0-1.1,3.26,5.36,5.36,0,0,0,1.28,3.67,8.72,8.72,0,0,0,3.7,2.29,42.7,42.7,0,0,0,5.79,1.52,58.32,58.32,0,0,1,7.74,1.92,18.18,18.18,0,0,1,5.53,2.85,10.81,10.81,0,0,1,3.3,4.37,16.7,16.7,0,0,1,1.1,6.41,13.31,13.31,0,0,1-2.64,8.29,16.88,16.88,0,0,1-6.93,5.33A23,23,0,0,1,175.88,426.66Z"/><path d="M204.32,382.61a4.54,4.54,0,0,1-3.19-1.19,4,4,0,0,1-1.28-3.11,3.94,3.94,0,0,1,1.28-3.07,4.6,4.6,0,0,1,3.19-1.15h32.55a4.54,4.54,0,0,1,3.19,1.19,4,4,0,0,1,1.28,3.11,3.94,3.94,0,0,1-1.28,3.07,4.6,4.6,0,0,1-3.19,1.15Zm16.2,43.31a4.62,4.62,0,0,1-3.37-1.29,4.34,4.34,0,0,1-1.32-3.22v-43h9.53v43a4.27,4.27,0,0,1-1.36,3.22A4.83,4.83,0,0,1,220.52,425.92Z"/><path d="M258.2,421.41a4.26,4.26,0,0,1-1.39,3.22,4.62,4.62,0,0,1-3.23,1.29,4.38,4.38,0,0,1-3.3-1.29,4.48,4.48,0,0,1-1.24-3.22v-42.8a4.36,4.36,0,0,1,1.31-3.22,4.65,4.65,0,0,1,3.38-1.3,4.39,4.39,0,0,1,3.11,1.3,4.25,4.25,0,0,1,1.36,3.22Z"/><path d="M270.37,382.61a4.5,4.5,0,0,1-3.19-1.19,4,4,0,0,1-1.29-3.11,3.91,3.91,0,0,1,1.29-3.07,4.56,4.56,0,0,1,3.19-1.15h32.54a4.54,4.54,0,0,1,3.19,1.19,4,4,0,0,1,1.28,3.11,3.94,3.94,0,0,1-1.28,3.07,4.6,4.6,0,0,1-3.19,1.15Zm16.19,43.31a4.63,4.63,0,0,1-3.37-1.29,4.34,4.34,0,0,1-1.32-3.22v-43h9.53v43a4.3,4.3,0,0,1-1.35,3.22A4.87,4.87,0,0,1,286.56,425.92Z"/><path d="M351.51,374a4,4,0,0,1,3.08,1.29,4.65,4.65,0,0,1,1.17,3.23v26.8a22.27,22.27,0,0,1-2.6,10.88,19.09,19.09,0,0,1-7.15,7.41,20.54,20.54,0,0,1-10.55,2.66,20.78,20.78,0,0,1-10.6-2.66,19,19,0,0,1-7.18-7.41,22.27,22.27,0,0,1-2.6-10.88v-26.8a4.35,4.35,0,0,1,1.32-3.23,4.62,4.62,0,0,1,3.37-1.29,4.53,4.53,0,0,1,4.4,4.52v26.8a12.38,12.38,0,0,0,1.58,6.4,11.18,11.18,0,0,0,9.71,5.67,12,12,0,0,0,5.86-1.48,11.7,11.7,0,0,0,4.4-4.19,11.86,11.86,0,0,0,1.69-6.4v-26.8a4.79,4.79,0,0,1,1.1-3.23A3.73,3.73,0,0,1,351.51,374Z"/><path d="M402.67,376.61a3.93,3.93,0,0,1,2.24,3,4.57,4.57,0,0,1-1.06,3.77,3.35,3.35,0,0,1-2.46,1.48,5.68,5.68,0,0,1-3-.59,19.2,19.2,0,0,0-3.7-1.26,18,18,0,0,0-4.07-.44,18.68,18.68,0,0,0-7.07,1.26,14.81,14.81,0,0,0-5.32,3.59,15.48,15.48,0,0,0-3.33,5.51,20.79,20.79,0,0,0-1.14,7,22,22,0,0,0,1.28,7.85,15.34,15.34,0,0,0,3.56,5.55,14.18,14.18,0,0,0,5.35,3.29,20,20,0,0,0,6.67,1.08,21.23,21.23,0,0,0,4-.37,13.61,13.61,0,0,0,3.81-1.33,5.1,5.1,0,0,1,3-.52,3.85,3.85,0,0,1,2.53,1.55,4.5,4.5,0,0,1,1.06,3.82,3.9,3.9,0,0,1-2.23,2.85,26,26,0,0,1-3.92,1.59,29.29,29.29,0,0,1-4.07,1,26.29,26.29,0,0,1-4.18.33,29.2,29.2,0,0,1-10-1.7,25.27,25.27,0,0,1-8.43-5,23.23,23.23,0,0,1-5.82-8.32A29.41,29.41,0,0,1,364.19,400a28,28,0,0,1,1.94-10.52,24.55,24.55,0,0,1,5.5-8.33,25.47,25.47,0,0,1,8.39-5.48,28,28,0,0,1,10.56-2,27,27,0,0,1,6.3.74A25.37,25.37,0,0,1,402.67,376.61Z"/><path d="M421.88,421.41a4.22,4.22,0,0,1-1.39,3.22,4.62,4.62,0,0,1-3.23,1.29,4.38,4.38,0,0,1-3.3-1.29,4.48,4.48,0,0,1-1.24-3.22v-42.8a4.33,4.33,0,0,1,1.32-3.22,4.62,4.62,0,0,1,3.37-1.3,4.39,4.39,0,0,1,3.11,1.3,4.25,4.25,0,0,1,1.36,3.22Z"/><path d="M480.08,400a28.87,28.87,0,0,1-1.83,10.36,26.44,26.44,0,0,1-5.17,8.48,23.72,23.72,0,0,1-7.92,5.74,24.15,24.15,0,0,1-27.85-5.74,26.44,26.44,0,0,1-5.17-8.48,30.27,30.27,0,0,1,0-20.73,26.55,26.55,0,0,1,5.17-8.48,24,24,0,0,1,7.88-5.73,24.29,24.29,0,0,1,27.89,5.73,26.55,26.55,0,0,1,5.17,8.48A29,29,0,0,1,480.08,400Zm-9.53,0a20.15,20.15,0,0,0-2-9,16.35,16.35,0,0,0-5.42-6.4,14.65,14.65,0,0,0-16,0,16.09,16.09,0,0,0-5.39,6.37,21.89,21.89,0,0,0,0,18,16,16,0,0,0,5.39,6.41,14.65,14.65,0,0,0,16,0,16.31,16.31,0,0,0,5.42-6.41A20.11,20.11,0,0,0,470.55,400Z"/><path d="M527.44,374.09a3.71,3.71,0,0,1,2.85,1.19,4.16,4.16,0,0,1,1.1,3v43.17a4.39,4.39,0,0,1-1.28,3.22,4.33,4.33,0,0,1-3.19,1.29,6.13,6.13,0,0,1-1.94-.33,3.27,3.27,0,0,1-1.5-.93l-28.81-36.94,1.9-1.19v35.25a4.1,4.1,0,0,1-1.13,3,3.93,3.93,0,0,1-3,1.18,3.72,3.72,0,0,1-2.86-1.18,4.2,4.2,0,0,1-1.1-3V378.61a4.41,4.41,0,0,1,1.28-3.22,4.34,4.34,0,0,1,3.19-1.3,6.17,6.17,0,0,1,2.13.41,3.09,3.09,0,0,1,1.61,1.22l27.93,36-1.25.88V378.24a4.2,4.2,0,0,1,1.1-3A3.81,3.81,0,0,1,527.44,374.09Z"/><path d="M561.23,385.72l-15.84,37.61a4.46,4.46,0,0,1-1.57,2.18,3.77,3.77,0,0,1-2.31.78,3.64,3.64,0,0,1-2.93-1.11,4,4,0,0,1-1-2.74,5.15,5.15,0,0,1,.22-1.4l18.25-44.28a5,5,0,0,1,1.8-2.3,3.81,3.81,0,0,1,2.6-.66,4.35,4.35,0,0,1,4.11,3l18,43.39a5.1,5.1,0,0,1,.37,1.77,4.12,4.12,0,0,1-1.29,3.19,4,4,0,0,1-2.82,1.18,3.83,3.83,0,0,1-2.38-.81,5.3,5.3,0,0,1-1.65-2.22l-15.76-37.1ZM547.67,414.3l4-8.52h19.79l1.39,8.52Z"/><path d="M617.52,417.26a4.46,4.46,0,0,1,3.19,1.22,4.16,4.16,0,0,1,1.29,3.15,4,4,0,0,1-1.29,3.07,4.46,4.46,0,0,1-3.19,1.22H593.7a4.33,4.33,0,0,1-3.19-1.29,4.43,4.43,0,0,1-1.28-3.22v-42.8a4.33,4.33,0,0,1,1.32-3.22,4.62,4.62,0,0,1,3.37-1.3,4.39,4.39,0,0,1,3.11,1.3,4.25,4.25,0,0,1,1.36,3.22v39.91l-1.61-1.26Z"/></g></g></svg>